<?xml version="1.0" encoding="utf-8"?>
<!-- Generator: Adobe Illustrator 19.1.0, SVG Export Plug-In . SVG Version: 6.00 Build 0)  -->
<svg version="1.1" xmlns="http://www.w3.org/2000/svg" xmlns:xlink="http://www.w3.org/1999/xlink" x="0px" y="0px"
	 viewBox="0 0 595.3 841.9" style="enable-background:new 0 0 595.3 841.9;" xml:space="preserve">
<style type="text/css">
	.st0{display:none;}
	.st1{display:inline;}
	.st2{display:inline;fill:#FFDA01;}
	.st3{font-family:'ArialNarrow-Bold';}
	.st4{font-size:12px;}
	.st5{display:none;fill:#FFDA01;}
	.st6{display:inline;fill:#EAEB9C;}
	.st7{opacity:7.000000e-002;}
	.st8{opacity:0.85;}
	.st9{opacity:0.85;fill:#FFD402;}
	.st10{fill:#575756;}
	.st11{opacity:0.2;}
	.st12{fill:#FFFFFF;stroke:#000000;stroke-miterlimit:10;}
</style>
<g id="Laag_1" class="st0">
	<path class="st1" d="M141.2,243.9"/>
	<text transform="matrix(1 -9.450000e-003 9.450000e-003 1 147.2954 254.791)" class="st2 st3 st4">DAVANT</text>
	<g class="st1">
		<path class="st5" d="M147.9,246.2l2.6,0c0.7,0,1.2,0.1,1.5,0.2c0.3,0.1,0.6,0.4,0.9,0.7c0.3,0.3,0.5,0.8,0.7,1.3
			c0.2,0.6,0.3,1.2,0.3,2.1c0,0.7-0.1,1.4-0.2,1.9c-0.2,0.6-0.4,1-0.6,1.3c-0.3,0.3-0.6,0.6-0.9,0.7c-0.4,0.2-0.8,0.3-1.4,0.3
			l-2.7,0L147.9,246.2z M149.4,247.6l0.1,5.7l1.1,0c0.5,0,0.8-0.1,1-0.1s0.4-0.2,0.5-0.4c0.1-0.2,0.2-0.5,0.3-0.8
			c0.1-0.4,0.1-0.9,0.1-1.5c0-0.6-0.1-1.1-0.1-1.5c-0.1-0.4-0.2-0.7-0.4-0.9c-0.2-0.2-0.4-0.3-0.7-0.4c-0.2,0-0.6-0.1-1.2-0.1
			L149.4,247.6z"/>
		<path class="st5" d="M161.5,254.7l-1.5,0l-0.6-1.9l-2.8,0l-0.6,2l-1.5,0l2.7-8.6l1.5,0L161.5,254.7z M158.8,251.3l-1-3.2l-0.9,3.2
			L158.8,251.3z"/>
		<path class="st5" d="M163.3,254.6l-2.6-8.6l1.5,0l1.8,6.3l1.7-6.4l1.5,0l-2.4,8.6L163.3,254.6z"/>
		<path class="st5" d="M173.7,254.5l-1.5,0l-0.6-1.9l-2.8,0l-0.6,2l-1.5,0l2.7-8.6l1.5,0L173.7,254.5z M171,251.2l-1-3.2l-0.9,3.2
			L171,251.2z"/>
		<path class="st5" d="M174.5,254.5l-0.1-8.6l1.4,0l2.9,5.7l-0.1-5.7l1.3,0l0.1,8.6l-1.4,0l-2.9-5.6l0.1,5.6L174.5,254.5z"/>
		<path class="st5" d="M183.1,254.5l-0.1-7.1l-2.1,0l0-1.5l5.6-0.1l0,1.5l-2.1,0l0.1,7.1L183.1,254.5z"/>
	</g>
	<text transform="matrix(0.8212 -0.5707 0.5707 0.8212 148.9029 254.648)" class="st6 st3 st4">DAVANT</text>
	<path class="st1" d="M139.9,243.4"/>
</g>
<g id="Laag_3">
	<g id="D_1_" class="st7">
		<path class="st8" d="M149.7,255.2c-0.5,0-1,0-1.4,0v-8.6h1.4C149.7,249.5,149.7,252.3,149.7,255.2z"/>
		<path class="st8" d="M148.3,246.6l3.1,0c0,0,2.5-0.2,2.9,3.5s-1.5,4.6-1.5,4.6s-0.4,0.4-1.6,0.4c-1,0-1.9,0-2.9,0c0-0.5,0-1,0-1.5
			c0.9,0,1.8,0,2.7,0c0,0,1.6,0.2,1.7-1.8c0.1-2.1-0.1-2.6-0.1-2.6s-0.2-1.3-1.8-1.2c-0.8,0-1.7,0-2.5,0
			C148.3,247.6,148.3,247.1,148.3,246.6z"/>
	</g>
	<g id="A_3_" class="st7">
		<polygon class="st8" points="158.9,246.5 156.5,255.1 154.7,255.1 157.4,246.5 		"/>
		<polygon class="st8" points="157.4,246.5 159.8,255.1 161.6,255.1 158.9,246.5 		"/>
	</g>
	<g id="A_2_" class="st7">
		<polygon class="st8" points="171.1,246.4 168.7,255 167,255 169.6,246.4 		"/>
		<polygon class="st8" points="169.6,246.4 172,255 173.8,255 171.1,246.4 		"/>
	</g>
	<g id="V_1_" class="st7">
		<polygon class="st8" points="165.1,255 162.7,246.4 161,246.4 163.6,255 		"/>
		<polygon class="st8" points="163.6,255 166,246.4 167.8,246.4 165.1,255 		"/>
	</g>
	<g id="N_1_" class="st7">
		<rect x="174.7" y="246.3" class="st8" width="1.4" height="8.6"/>
		<rect x="179" y="246.3" class="st8" width="1.4" height="8.6"/>
		<polygon class="st8" points="176.1,246.3 180.4,254.9 179,254.9 174.7,246.3 		"/>
	</g>
	<g id="T_1_" class="st7">
		<rect x="181.3" y="246.3" class="st8" width="5.6" height="1.4"/>
		<rect x="183.4" y="246.3" class="st8" width="1.4" height="8.6"/>
	</g>
</g>
<g id="Laag_2">
	<g id="D">
		<path class="st9" d="M149.4,254.8c-0.5,0-1,0-1.4,0v-8.6h1.4C149.4,249.1,149.4,251.9,149.4,254.8z"/>
		<path class="st9" d="M147.9,246.2l3.1,0c0,0,2.5-0.2,2.9,3.5s-1.5,4.6-1.5,4.6s-0.4,0.4-1.6,0.4c-1,0-1.9,0-2.9,0c0-0.5,0-1,0-1.5
			c0.9,0,1.8,0,2.7,0c0,0,1.6,0.2,1.7-1.8c0.1-2.1-0.1-2.6-0.1-2.6s-0.2-1.3-1.8-1.2c-0.8,0-1.7,0-2.5,0
			C147.9,247.2,147.9,246.7,147.9,246.2z"/>
	</g>
	<g id="A">
		<polygon class="st9" points="158.6,246.1 156.2,254.7 154.4,254.7 157.1,246.1 		"/>
		<polygon class="st9" points="157.1,246.1 159.4,254.7 161.2,254.7 158.6,246.1 		"/>
	</g>
	<g id="A_1_">
		<polygon class="st9" points="170.8,246 168.4,254.6 166.6,254.6 169.3,246 		"/>
		<polygon class="st9" points="169.3,246 171.7,254.6 173.5,254.6 170.8,246 		"/>
	</g>
	<g id="V">
		<polygon class="st9" points="164.8,254.6 162.4,246 160.6,246 163.3,254.6 		"/>
		<polygon class="st9" points="163.3,254.6 165.7,246 167.5,246 164.8,254.6 		"/>
	</g>
	<g id="N">
		<rect x="174.4" y="245.9" class="st9" width="1.4" height="8.6"/>
		<rect x="178.6" y="245.9" class="st9" width="1.4" height="8.6"/>
		<polygon class="st9" points="175.7,245.9 180,254.5 178.6,254.5 174.4,245.9 		"/>
	</g>
	<g id="T">
		<rect x="181" y="245.9" class="st9" width="5.6" height="1.4"/>
		<rect x="183.1" y="245.9" class="st9" width="1.4" height="8.6"/>
	</g>
	<path class="st10" d="M149.9,251.7c0.5-0.5,1-1.3,1.4-2.3c0.2-0.5,0.4-0.9,0.5-1.3c-0.2-0.2-0.6-0.4-1.1-0.5
		c-0.1,0.4-0.3,0.8-0.5,1.3c-0.3,0.5-0.5,1-0.8,1.4c0,0.2,0,0.4,0,0.6c-0.1-0.1-0.1-0.2-0.2-0.3l0,0c-0.5-0.8-1.1-1.5-1.6-2.3
		c-0.6-0.8-1.1-1.6-1.7-2.4c0.3-0.1,2.5-0.6,3.3-2.4c0.1-0.2,0.3-0.8,0.3-1.6c-0.1-0.7-0.4-1.2-0.6-1.5c-0.2-0.2-0.4-0.6-0.9-1
		c-0.8-0.6-1.7-0.6-2.1-0.6c-1,0-1.7,0.4-1.9,0.5c-0.2,0.1-0.6,0.3-0.9,0.8c-0.6,0.7-0.6,1.4-0.7,1.7c-0.1,0.9,0.3,1.6,0.4,2
		c0.2,0.3,0.3,0.6,0.6,0.9c0.2,0.3,0.4,0.6,0.5,0.7c-1.4,0.7-2.4,1.7-2.7,2.6c-0.1,0.2-0.4,0.9-0.4,1.8c0,0.1,0,0.3,0,0.3
		c0,1.2,0.4,2.3,1.2,3.3c0.8,1,2.2,1.6,3.5,1.5c0.8-0.1,1.5-0.5,1.9-0.7c0.3-0.2,0.5-0.3,0.7-0.4c0-0.5,0-1.1,0-1.6
		c-0.5,0.5-1.6,1.5-2.9,1.4c-0.9,0-1.5-0.4-1.5-0.4c-0.5-0.3-0.8-0.7-0.9-0.8c-0.5-0.7-0.6-1.4-0.7-1.8c0-0.3-0.1-0.8,0-1.3
		c0.2-0.7,0.5-1.2,0.7-1.4c0.6-0.8,1.5-1.2,1.9-1.3c1.2,1.8,2.5,3.6,3.7,5.4l0,0l1.1,1.6c0,0,0,0,0,0c0.1,0.1,0.2,0.3,0.3,0.4
		c0.3,0.4,0.5,0.8,0.8,1.2c0.4-0.3,0.8-0.6,1.2-0.8c-0.3-0.4-0.5-0.7-0.8-1.1C150.5,252.6,150.2,252.1,149.9,251.7z M144.2,243.5
		c-0.1-0.2-0.2-0.3-0.3-0.5c-0.2-0.4-0.4-0.8-0.3-1.3c0-0.1,0.1-0.5,0.3-0.8c0.2-0.3,0.5-0.4,0.7-0.6c0.5-0.3,1-0.3,1.2-0.3
		c0.5,0,0.9,0.1,1,0.2c0.2,0.1,0.4,0.2,0.6,0.4c0.2,0.2,0.4,0.5,0.4,0.6c0.1,0.1,0.3,0.6,0.2,1.2c-0.1,0.6-0.4,1-0.5,1.2
		c-0.5,0.6-1.1,0.9-1.6,1.1c-0.3,0.1-0.6,0.2-0.8,0.2C144.8,244.3,144.4,243.9,144.2,243.5z"/>
	<path class="st11" d="M149.7,249.8c0,0.5,0,0.9,0,1.4c0.1,0.1,0.2,0.3,0.3,0.4c0,0,0,0,0,0l-0.5-0.8l0-0.6L149.7,249.8z"/>
	<path class="st12" d="M149.4,250.2"/>
	<path class="st7" d="M150.2,252.1c0.5-0.5,1-1.3,1.4-2.3c0.2-0.5,0.4-0.9,0.5-1.3c-0.2-0.2-0.6-0.4-1.1-0.5
		c-0.1,0.4-0.3,0.8-0.5,1.3c-0.3,0.5-0.5,1-0.8,1.4c0,0.2,0,0.4,0,0.6c-0.1-0.1-0.1-0.2-0.2-0.3l0,0c-0.5-0.8-1.1-1.5-1.6-2.3
		c-0.6-0.8-1.1-1.6-1.7-2.4c0.3-0.1,2.5-0.6,3.3-2.4c0.1-0.2,0.3-0.8,0.3-1.6c-0.1-0.7-0.4-1.2-0.6-1.5c-0.2-0.2-0.4-0.6-0.9-1
		c-0.8-0.6-1.7-0.6-2.1-0.6c-1,0-1.7,0.4-1.9,0.5c-0.2,0.1-0.6,0.3-0.9,0.8c-0.6,0.7-0.6,1.4-0.7,1.7c-0.1,0.9,0.3,1.6,0.4,2
		c0.2,0.3,0.3,0.6,0.6,0.9c0.2,0.3,0.4,0.6,0.5,0.7c-1.4,0.7-2.4,1.7-2.7,2.6c-0.1,0.2-0.4,0.9-0.4,1.8c0,0.1,0,0.3,0,0.3
		c0,1.2,0.4,2.3,1.2,3.3c0.8,1,2.2,1.6,3.5,1.5c0.8-0.1,1.5-0.5,1.9-0.7c0.1-0.1,0.3-0.1,0.4-0.2v-1.5c-0.6,0.5-1.5,1.2-2.6,1.1
		c-0.9,0-1.5-0.4-1.5-0.4c-0.5-0.3-0.8-0.7-0.9-0.8c-0.5-0.7-0.6-1.4-0.7-1.8c0-0.3-0.1-0.8,0-1.3c0.2-0.7,0.5-1.2,0.7-1.4
		c0.6-0.8,1.5-1.2,1.9-1.3c1.2,1.8,2.5,3.6,3.7,5.4l0,0l1.1,1.6c0,0,0,0,0,0c0.1,0.1,0.2,0.3,0.3,0.4c0.3,0.4,0.5,0.8,0.8,1.2
		c0.4-0.3,0.8-0.6,1.2-0.8c-0.3-0.4-0.5-0.7-0.8-1.1C150.9,253,150.5,252.5,150.2,252.1z M144.6,243.9c-0.1-0.2-0.2-0.3-0.3-0.5
		c-0.2-0.4-0.4-0.8-0.3-1.3c0-0.1,0.1-0.5,0.3-0.8c0.2-0.3,0.5-0.4,0.7-0.6c0.5-0.3,1-0.3,1.2-0.3c0.5,0,0.9,0.1,1,0.2
		c0.2,0.1,0.4,0.2,0.6,0.4c0.2,0.2,0.4,0.5,0.4,0.6c0.1,0.1,0.3,0.6,0.2,1.2c-0.1,0.6-0.4,1-0.5,1.2c-0.5,0.6-1.1,0.9-1.6,1.1
		c-0.3,0.1-0.6,0.2-0.8,0.2C145.1,244.7,144.8,244.3,144.6,243.9z"/>
</g>
</svg>
