<?xml version="1.0" encoding="utf-8"?>
<!-- Generator: Adobe Illustrator 19.1.0, SVG Export Plug-In . SVG Version: 6.00 Build 0)  -->
<svg version="1.1" xmlns="http://www.w3.org/2000/svg" xmlns:xlink="http://www.w3.org/1999/xlink" x="0px" y="0px"
	 viewBox="0 0 595.3 211.3" style="enable-background:new 0 0 595.3 211.3;" xml:space="preserve">
<style type="text/css">
	.st0{display:none;}
	.st1{display:inline;}
	.st2{display:inline;fill:#FFDA01;}
	.st3{font-family:'ArialNarrow-Bold';}
	.st4{font-size:12px;}
	.st5{display:none;fill:#FFDA01;}
	.st6{display:inline;fill:#EAEB9C;}
	.st7{opacity:7.000000e-002;}
	.st8{opacity:0.85;}
	.st9{opacity:0.85;fill:#FFD402;}
	.st10{fill:#575756;}
	.st11{opacity:0.2;}
	.st12{fill:#FFFFFF;stroke:#000000;stroke-miterlimit:10;}
</style>
<g id="Laag_1" class="st0">
	<path class="st1" d="M141.2,62.9"/>
	<text transform="matrix(1 -9.450000e-003 9.450000e-003 1 147.2954 73.791)" class="st2 st3 st4">DAVANT</text>
	<g class="st1">
		<path class="st5" d="M147.9,65.2l2.6,0c0.7,0,1.2,0.1,1.5,0.2c0.3,0.1,0.6,0.4,0.9,0.7c0.3,0.3,0.5,0.8,0.7,1.3
			c0.2,0.6,0.3,1.2,0.3,2.1c0,0.7-0.1,1.4-0.2,1.9c-0.2,0.6-0.4,1-0.6,1.3c-0.3,0.3-0.6,0.6-0.9,0.7c-0.4,0.2-0.8,0.3-1.4,0.3
			l-2.7,0L147.9,65.2z M149.4,66.6l0.1,5.7l1.1,0c0.5,0,0.8-0.1,1-0.1s0.4-0.2,0.5-0.4c0.1-0.2,0.2-0.5,0.3-0.8
			c0.1-0.4,0.1-0.9,0.1-1.5c0-0.6-0.1-1.1-0.1-1.5c-0.1-0.4-0.2-0.7-0.4-0.9c-0.2-0.2-0.4-0.3-0.7-0.4c-0.2,0-0.6-0.1-1.2-0.1
			L149.4,66.6z"/>
		<path class="st5" d="M161.5,73.7l-1.5,0l-0.6-1.9l-2.8,0l-0.6,2l-1.5,0l2.7-8.6l1.5,0L161.5,73.7z M158.8,70.3l-1-3.2l-0.9,3.2
			L158.8,70.3z"/>
		<path class="st5" d="M163.3,73.6l-2.6-8.6l1.5,0l1.8,6.3l1.7-6.4l1.5,0l-2.4,8.6L163.3,73.6z"/>
		<path class="st5" d="M173.7,73.5l-1.5,0l-0.6-1.9l-2.8,0l-0.6,2l-1.5,0l2.7-8.6l1.5,0L173.7,73.5z M171,70.2l-1-3.2l-0.9,3.2
			L171,70.2z"/>
		<path class="st5" d="M174.5,73.5l-0.1-8.6l1.4,0l2.9,5.7l-0.1-5.7l1.3,0l0.1,8.6l-1.4,0l-2.9-5.6l0.1,5.6L174.5,73.5z"/>
		<path class="st5" d="M183.1,73.5l-0.1-7.1l-2.1,0l0-1.5l5.6-0.1l0,1.5l-2.1,0l0.1,7.1L183.1,73.5z"/>
	</g>
	<text transform="matrix(0.8212 -0.5707 0.5707 0.8212 148.9029 73.648)" class="st6 st3 st4">DAVANT</text>
	<path class="st1" d="M139.9,62.4"/>
</g>
<g id="Laag_3">
	<g id="D_1_" class="st7">
		<path class="st8" d="M132.9,204.9c-5.8,0.1-11.7,0.1-17.5,0.2V100.2h17.5C132.9,135.1,132.9,170,132.9,204.9z"/>
		<path class="st8" d="M115.4,100.2l37.3-0.2c0,0,30.7-2.9,34.8,43.2c4.1,46-17.7,56.5-17.7,56.5s-5.4,4.6-19.3,5.1
			c-11.7,0.1-23.4,0.2-35.1,0.3c0-6,0-12,0-18.1c11.1,0,22.2,0,33.3,0c0,0,20,2.8,20.9-22.5c0.9-25.3-1.8-32.1-1.8-32.1
			s-2.8-16-21.5-14.7c-10.3,0-20.6,0-30.9,0C115.4,111.9,115.4,106.1,115.4,100.2z"/>
	</g>
	<g id="A_3_" class="st7">
		<polygon class="st8" points="245.4,99 216.4,204.4 194.5,204.4 227,99.1 		"/>
		<polygon class="st8" points="227.1,99 256.2,204.4 278,204.4 245.5,99.1 		"/>
	</g>
	<g id="A_2_" class="st7">
		<polygon class="st8" points="394.7,98 365.7,203.4 343.8,203.4 376.3,98.1 		"/>
		<polygon class="st8" points="376.5,98 405.5,203.4 427.4,203.4 394.9,98.1 		"/>
	</g>
	<g id="V_1_" class="st7">
		<polygon class="st8" points="321.4,203.4 292.4,98 270.5,98 303,203.2 		"/>
		<polygon class="st8" points="303.2,203.4 332.2,98 354.1,98 321.6,203.2 		"/>
	</g>
	<g id="N_1_" class="st7">
		<rect x="438.5" y="97.1" class="st8" width="16.6" height="104.8"/>
		<rect x="490.7" y="96.7" class="st8" width="17.2" height="104.8"/>
		<polygon class="st8" points="455.1,97.1 507.8,201.4 490.7,201.4 438.5,97.1 		"/>
	</g>
	<g id="T_1_" class="st7">
		<rect x="518.9" y="96.4" class="st8" width="68.5" height="17.1"/>
		<rect x="545.2" y="96.4" class="st8" width="17.6" height="104.5"/>
	</g>
</g>
<g id="Laag_2">
	<g id="D_3_">
		<path class="st9" d="M128.8,200c-5.8,0.1-11.7,0.1-17.5,0.2V95.3h17.5C128.8,130.2,128.8,165.1,128.8,200z"/>
		<path class="st9" d="M111.3,95.3l37.3-0.2c0,0,30.7-2.9,34.8,43.2c4.1,46-17.7,56.5-17.7,56.5s-5.4,4.6-19.3,5.1
			c-11.7,0.1-23.4,0.2-35.1,0.3c0-6,0-12,0-18.1c11.1,0,22.2,0,33.3,0c0,0,20,2.8,20.9-22.5c0.9-25.3-1.8-32.1-1.8-32.1
			s-2.8-16-21.5-14.7c-10.3,0-20.6,0-30.9,0C111.4,107,111.3,101.1,111.3,95.3z"/>
	</g>
	<g id="A_6_">
		<polygon class="st9" points="241.3,94 212.3,199.5 190.4,199.5 222.9,94.2 		"/>
		<polygon class="st9" points="223.1,94 252.1,199.5 274,199.5 241.5,94.2 		"/>
	</g>
	<g id="A_1_">
		<polygon class="st9" points="390.7,93 361.6,198.4 339.8,198.4 372.3,93.2 		"/>
		<polygon class="st9" points="372.4,93 401.4,198.4 423.3,198.4 390.8,93.2 		"/>
	</g>
	<g id="V_3_">
		<polygon class="st9" points="317.4,198.4 288.3,93 266.5,93 299,198.3 		"/>
		<polygon class="st9" points="299.1,198.4 328.1,93 350,93 317.5,198.3 		"/>
	</g>
	<g id="N_3_">
		<rect x="434.5" y="92.2" class="st9" width="16.6" height="104.8"/>
		<rect x="486.6" y="91.7" class="st9" width="17.2" height="104.8"/>
		<polygon class="st9" points="451.1,92.2 503.8,196.5 486.6,196.5 434.5,92.2 		"/>
	</g>
	<g id="T_3_">
		<rect x="514.9" y="91.4" class="st9" width="68.5" height="17.1"/>
		<rect x="541.2" y="91.4" class="st9" width="17.6" height="104.5"/>
	</g>
	<path class="st7" d="M139.6,166.9c5.6-6.6,12.1-15.8,17.6-27.7c2.6-5.7,4.4-11,5.9-15.9c-2.8-3-7.2-5.5-13.9-5.6
		c-1.5,4.8-3.5,10.1-6.2,15.7c-3.2,6.6-6.6,12-10,16.7c0,2.3,0,4.7,0,7c-0.8-1.2-1.6-2.3-2.4-3.5l0,0c-6.6-9.4-13.2-18.8-19.9-28.3
		c-6.9-9.7-13.7-19.4-20.6-29c3.2-0.8,31.1-7.8,40-29.8c1.2-2.9,4-9.9,3.1-19.1c-1-8.9-5-15.2-7.5-18.8c-1.9-2.9-5.1-7.6-10.8-11.6
		c-10.3-7.4-21.4-7.5-26-7.5c-12,0-20.5,4.5-22.7,5.7c-2.7,1.5-7.3,4.1-11.5,9.2c-6.9,8.4-7.9,17.5-8.2,20.3
		c-1.1,11.3,3.1,20,5.2,24.3c2,4.1,3.8,7.1,6.8,11.6c2.5,3.8,4.7,6.8,6.3,9c-17.6,8.6-29,21.3-33.2,31.2c-1.2,2.7-4.5,11.4-5,22.1
		c-0.1,1.8-0.1,3.2-0.1,4.1c0,14.7,4.7,28,14.1,39.8c9.5,12,26.7,19.6,43.3,17.8c9.8-1.1,18.3-5.5,23.2-8.1c1.7-0.9,3.1-1.7,4.4-2.5
		v-18.3c-7,6.4-18.3,14.1-31.6,13.7c-10.5-0.3-18.4-5-18.4-5c-6.1-3.6-9.5-8.1-11.1-10.2c-6.4-8.6-7.6-17.3-8.3-22.4
		c-0.5-4-1.2-9.4,0.3-16.2c2-8.9,6.4-14.7,8.5-17.4c7.9-10.1,17.9-14.4,22.8-16.1c15.2,21.9,30.4,43.8,45.5,65.6l0,0l13.9,20
		c0,0,0,0,0,0c1.3,1.8,2.5,3.6,3.8,5.4c3.4,4.8,6.7,9.6,10.1,14.5c4.8-3.4,9.6-6.8,14.4-10.3c-3.3-4.5-6.7-9.1-10-13.7
		C147.2,177.9,143.4,172.4,139.6,166.9z M70.2,67.5c-1.8-2.7-2.6-4.1-3.4-5.9c-2.1-4.3-4.7-9.6-4-16.2c0.2-1.7,0.6-6.1,3.7-10.3
		c2.7-3.8,6-5.5,8.8-6.9c6.2-3.2,12-3.6,14.8-3.6c6,0,10.5,1.7,12.5,2.5c2.4,1,5,2,7.8,4.5c3,2.7,4.5,5.6,5.3,7.2
		c0.8,1.7,3.5,7.1,2.9,14.2c-0.6,7.7-4.6,12.8-6.5,15.2c-6.1,7.7-13.9,10.7-19.8,12.9c-4.2,1.6-7.8,2.4-10.3,2.9
		C76.7,77.2,72.9,71.6,70.2,67.5z"/>
	<path class="st10" d="M135.6,162c5.6-6.6,12.1-15.8,17.6-27.7c2.6-5.7,4.4-11,5.9-15.9c-2.8-3-7.2-5.5-13.9-5.6
		c-1.5,4.8-3.5,10.1-6.2,15.7c-3.2,6.6-6.6,12-10,16.7c0,2.3,0,4.7,0,7c-0.8-1.2-1.6-2.3-2.4-3.5l0,0c-6.6-9.4-13.2-18.8-19.9-28.3
		c-6.9-9.7-13.7-19.4-20.6-29c3.2-0.8,31.1-7.8,40-29.8c1.2-2.9,4-9.9,3.1-19.1c-1-8.9-5-15.2-7.5-18.8c-1.9-2.9-5.1-7.6-10.8-11.6
		c-10.3-7.4-21.4-7.5-26-7.5c-12,0-20.5,4.5-22.7,5.7c-2.7,1.5-7.3,4.1-11.5,9.2c-6.9,8.4-7.9,17.5-8.2,20.3
		c-1.1,11.3,3.1,20,5.2,24.3c2,4.1,3.8,7.1,6.8,11.6c2.5,3.8,4.7,6.8,6.3,9c-17.6,8.6-29,21.3-33.2,31.2c-1.2,2.7-4.5,11.4-5,22.1
		c-0.1,1.8-0.1,3.2-0.1,4.1c0,14.7,4.7,28,14.1,39.8c9.5,12,26.7,19.6,43.3,17.8c9.8-1.1,18.3-5.5,23.2-8.1c3.8-2,6.4-3.8,8.4-5.3
		c0-6.5,0-13,0-19.5c-6.2,6.5-19.4,18.1-35.7,17.6c-10.5-0.3-18.4-5-18.4-5c-6.1-3.6-9.5-8.1-11.1-10.2c-6.4-8.6-7.6-17.3-8.3-22.4
		c-0.5-4-1.2-9.4,0.3-16.2c2-8.9,6.4-14.7,8.5-17.4C54.5,103,64.5,98.7,69.4,97c15.2,21.9,30.4,43.8,45.5,65.6l0,0l13.9,20
		c0,0,0,0,0,0c1.3,1.8,2.5,3.6,3.8,5.4c3.4,4.8,6.7,9.6,10.1,14.5c4.8-3.4,9.6-6.8,14.4-10.3c-3.3-4.5-6.7-9.1-10-13.7
		C143.2,172.9,139.3,167.4,135.6,162z M66.1,62.5c-1.8-2.7-2.6-4.1-3.4-5.9c-2.1-4.3-4.7-9.6-4-16.2c0.2-1.7,0.6-6.1,3.7-10.3
		c2.7-3.8,6-5.5,8.8-6.9c6.2-3.2,12-3.6,14.8-3.6c6,0,10.5,1.7,12.5,2.5c2.4,1,5,2,7.8,4.5c3,2.7,4.5,5.6,5.3,7.2
		c0.8,1.7,3.5,7.1,2.9,14.2c-0.6,7.7-4.6,12.8-6.5,15.2c-6.1,7.7-13.9,10.7-19.8,12.9c-4.2,1.6-7.8,2.4-10.3,2.9
		C72.6,72.3,68.8,66.6,66.1,62.5z"/>
	<path class="st11" d="M132.9,139.2c-0.2,5.7-0.3,11.5-0.5,17.2c1.2,1.7,2.3,3.4,3.5,5.1c-0.1,0.2-0.3,0.3-0.4,0.5l-6.7-9.7l0-7
		L132.9,139.2z"/>
	<path class="st12" d="M129.3,144.7"/>
</g>
</svg>
